<svg width="194" height="141" viewBox="0 0 194 141" fill="none" xmlns="http://www.w3.org/2000/svg">
<rect width="194" height="141" rx="24" fill="#FF4A71"/>
<rect x="65.5" y="16.5" width="63" height="63" rx="31.5" fill="white" fill-opacity="0.3"/>
<rect x="65.5" y="16.5" width="63" height="63" rx="31.5" stroke="white"/>
<path d="M97 55.8262V45.8262" stroke="white" stroke-width="4" stroke-linecap="round" stroke-linejoin="round"/>
<path d="M91 55.8262V39.8262" stroke="white" stroke-width="4" stroke-linecap="round" stroke-linejoin="round"/>
<path d="M103 55.8262V51.8262" stroke="white" stroke-width="4" stroke-linecap="round" stroke-linejoin="round"/>
<path d="M16.9545 104.196V101.545H30.8807V104.196H25.4858V119H22.3494V104.196H16.9545ZM34.2148 119.264C33.3852 119.264 32.6381 119.116 31.9733 118.821C31.3142 118.52 30.7915 118.077 30.4051 117.491C30.0244 116.906 29.8341 116.185 29.8341 115.327C29.8341 114.588 29.9705 113.977 30.2432 113.494C30.5159 113.011 30.8881 112.625 31.3597 112.335C31.8313 112.045 32.3625 111.827 32.9534 111.679C33.55 111.526 34.1665 111.415 34.8028 111.347C35.5699 111.267 36.192 111.196 36.6693 111.134C37.1466 111.065 37.4932 110.963 37.7091 110.827C37.9307 110.685 38.0415 110.466 38.0415 110.17V110.119C38.0415 109.477 37.8511 108.98 37.4705 108.628C37.0898 108.276 36.5415 108.099 35.8256 108.099C35.0699 108.099 34.4705 108.264 34.0273 108.594C33.5898 108.923 33.2943 109.312 33.1409 109.761L30.2602 109.352C30.4875 108.557 30.8625 107.892 31.3852 107.358C31.908 106.818 32.5472 106.415 33.3028 106.148C34.0585 105.875 34.8938 105.739 35.8085 105.739C36.4392 105.739 37.067 105.812 37.692 105.96C38.317 106.108 38.8881 106.352 39.4051 106.693C39.9222 107.028 40.3369 107.486 40.6494 108.065C40.9676 108.645 41.1267 109.369 41.1267 110.239V119H38.1608V117.202H38.0585C37.871 117.565 37.6068 117.906 37.2659 118.224C36.9307 118.537 36.5074 118.79 35.996 118.983C35.4903 119.17 34.8966 119.264 34.2148 119.264ZM35.0159 116.997C35.6352 116.997 36.1722 116.875 36.6267 116.631C37.0813 116.381 37.4307 116.051 37.675 115.642C37.925 115.233 38.05 114.787 38.05 114.304V112.761C37.9534 112.841 37.7886 112.915 37.5557 112.983C37.3284 113.051 37.0727 113.111 36.7886 113.162C36.5045 113.213 36.2233 113.259 35.9449 113.298C35.6665 113.338 35.425 113.372 35.2205 113.401C34.7602 113.463 34.3483 113.565 33.9847 113.707C33.621 113.849 33.3341 114.048 33.1239 114.304C32.9136 114.554 32.8085 114.878 32.8085 115.276C32.8085 115.844 33.0159 116.273 33.4307 116.562C33.8455 116.852 34.3739 116.997 35.0159 116.997ZM45.5517 105.909L48.1938 110.741L50.8784 105.909H54.1426L50.1966 112.455L54.2108 119H50.9636L48.1938 114.287L45.4494 119H42.1767L46.1653 112.455L42.279 105.909H45.5517ZM59.0491 119.264C58.2196 119.264 57.4724 119.116 56.8077 118.821C56.1486 118.52 55.6259 118.077 55.2395 117.491C54.8588 116.906 54.6685 116.185 54.6685 115.327C54.6685 114.588 54.8048 113.977 55.0776 113.494C55.3503 113.011 55.7224 112.625 56.194 112.335C56.6656 112.045 57.1969 111.827 57.7878 111.679C58.3844 111.526 59.0009 111.415 59.6372 111.347C60.4043 111.267 61.0264 111.196 61.5037 111.134C61.981 111.065 62.3276 110.963 62.5435 110.827C62.7651 110.685 62.8759 110.466 62.8759 110.17V110.119C62.8759 109.477 62.6855 108.98 62.3048 108.628C61.9241 108.276 61.3759 108.099 60.6599 108.099C59.9043 108.099 59.3048 108.264 58.8616 108.594C58.4241 108.923 58.1287 109.312 57.9753 109.761L55.0946 109.352C55.3219 108.557 55.6969 107.892 56.2196 107.358C56.7423 106.818 57.3815 106.415 58.1372 106.148C58.8929 105.875 59.7281 105.739 60.6429 105.739C61.2736 105.739 61.9014 105.812 62.5264 105.96C63.1514 106.108 63.7224 106.352 64.2395 106.693C64.7565 107.028 65.1713 107.486 65.4838 108.065C65.802 108.645 65.9611 109.369 65.9611 110.239V119H62.9952V117.202H62.8929C62.7054 117.565 62.4412 117.906 62.1003 118.224C61.7651 118.537 61.3418 118.79 60.8304 118.983C60.3247 119.17 59.731 119.264 59.0491 119.264ZM59.8503 116.997C60.4696 116.997 61.0065 116.875 61.4611 116.631C61.9156 116.381 62.2651 116.051 62.5094 115.642C62.7594 115.233 62.8844 114.787 62.8844 114.304V112.761C62.7878 112.841 62.623 112.915 62.3901 112.983C62.1628 113.051 61.9071 113.111 61.623 113.162C61.3389 113.213 61.0577 113.259 60.7793 113.298C60.5009 113.338 60.2594 113.372 60.0548 113.401C59.5946 113.463 59.1827 113.565 58.819 113.707C58.4554 113.849 58.1685 114.048 57.9582 114.304C57.748 114.554 57.6429 114.878 57.6429 115.276C57.6429 115.844 57.8503 116.273 58.2651 116.562C58.6798 116.852 59.2082 116.997 59.8503 116.997ZM78.2099 109.369L75.3974 109.676C75.3179 109.392 75.1787 109.125 74.9798 108.875C74.7866 108.625 74.5253 108.423 74.1957 108.27C73.8662 108.116 73.4628 108.04 72.9855 108.04C72.3435 108.04 71.8037 108.179 71.3662 108.457C70.9344 108.736 70.7213 109.097 70.727 109.54C70.7213 109.92 70.8605 110.23 71.1446 110.469C71.4344 110.707 71.9116 110.903 72.5764 111.057L74.8094 111.534C76.048 111.801 76.9685 112.224 77.5707 112.804C78.1787 113.384 78.4855 114.142 78.4912 115.08C78.4855 115.903 78.244 116.631 77.7668 117.261C77.2952 117.886 76.6389 118.375 75.798 118.727C74.9571 119.08 73.9912 119.256 72.9003 119.256C71.298 119.256 70.0082 118.92 69.031 118.25C68.0537 117.574 67.4713 116.634 67.2838 115.429L70.2923 115.139C70.4287 115.73 70.7185 116.176 71.1616 116.477C71.6048 116.778 72.1815 116.929 72.8918 116.929C73.6247 116.929 74.2128 116.778 74.656 116.477C75.1048 116.176 75.3293 115.804 75.3293 115.361C75.3293 114.986 75.1844 114.676 74.8946 114.432C74.6105 114.187 74.1673 114 73.5651 113.869L71.3321 113.401C70.0764 113.139 69.1474 112.699 68.5452 112.08C67.9429 111.455 67.6446 110.665 67.6503 109.71C67.6446 108.903 67.8634 108.205 68.3065 107.614C68.7554 107.017 69.3776 106.557 70.173 106.233C70.9741 105.903 71.8974 105.739 72.9429 105.739C74.477 105.739 75.6844 106.065 76.5651 106.719C77.4514 107.372 77.9997 108.256 78.2099 109.369ZM84.5884 119V105.909H87.5372V108.134H87.6906C87.9634 107.384 88.4151 106.798 89.0457 106.378C89.6764 105.952 90.4293 105.739 91.3043 105.739C92.1906 105.739 92.9378 105.955 93.5457 106.386C94.1594 106.812 94.5912 107.395 94.8412 108.134H94.9776C95.2673 107.406 95.756 106.827 96.4435 106.395C97.1367 105.957 97.9577 105.739 98.9065 105.739C100.111 105.739 101.094 106.119 101.855 106.881C102.617 107.642 102.997 108.753 102.997 110.213V119H99.9037V110.69C99.9037 109.878 99.6878 109.284 99.256 108.909C98.8242 108.528 98.2957 108.338 97.6707 108.338C96.9264 108.338 96.344 108.571 95.9236 109.037C95.5088 109.497 95.3014 110.097 95.3014 110.835V119H92.2759V110.562C92.2759 109.886 92.0713 109.347 91.6622 108.943C91.2588 108.54 90.7304 108.338 90.077 108.338C89.6338 108.338 89.2304 108.452 88.8668 108.679C88.5031 108.901 88.2134 109.216 87.9974 109.625C87.7815 110.028 87.6736 110.5 87.6736 111.04V119H84.5884ZM110.723 119.256C109.41 119.256 108.277 118.983 107.322 118.438C106.373 117.886 105.643 117.108 105.132 116.102C104.621 115.091 104.365 113.901 104.365 112.531C104.365 111.185 104.621 110.003 105.132 108.986C105.649 107.963 106.371 107.168 107.297 106.599C108.223 106.026 109.311 105.739 110.561 105.739C111.368 105.739 112.129 105.869 112.845 106.131C113.567 106.386 114.203 106.784 114.754 107.324C115.311 107.864 115.748 108.551 116.067 109.386C116.385 110.216 116.544 111.205 116.544 112.352V113.298H105.814V111.219H113.587C113.581 110.628 113.453 110.102 113.203 109.642C112.953 109.176 112.604 108.81 112.155 108.543C111.712 108.276 111.194 108.142 110.604 108.142C109.973 108.142 109.419 108.295 108.942 108.602C108.464 108.903 108.092 109.301 107.825 109.795C107.564 110.284 107.43 110.821 107.425 111.406V113.222C107.425 113.983 107.564 114.636 107.842 115.182C108.121 115.722 108.51 116.136 109.01 116.426C109.51 116.71 110.095 116.852 110.765 116.852C111.214 116.852 111.621 116.79 111.984 116.665C112.348 116.534 112.663 116.344 112.93 116.094C113.197 115.844 113.399 115.534 113.535 115.165L116.416 115.489C116.234 116.25 115.888 116.915 115.376 117.483C114.871 118.045 114.223 118.483 113.433 118.795C112.643 119.102 111.74 119.256 110.723 119.256ZM121.039 111.33V119H117.954V105.909H120.903V108.134H121.056C121.357 107.401 121.838 106.818 122.497 106.386C123.161 105.955 123.982 105.739 124.96 105.739C125.863 105.739 126.65 105.932 127.32 106.318C127.997 106.705 128.519 107.264 128.889 107.997C129.264 108.73 129.448 109.619 129.443 110.665V119H126.357V111.142C126.357 110.267 126.13 109.582 125.676 109.088C125.227 108.594 124.605 108.347 123.809 108.347C123.269 108.347 122.789 108.466 122.369 108.705C121.954 108.937 121.627 109.276 121.389 109.719C121.156 110.162 121.039 110.699 121.039 111.33ZM137.089 119.256C135.811 119.256 134.703 118.974 133.765 118.412C132.828 117.849 132.101 117.062 131.584 116.051C131.072 115.04 130.816 113.858 130.816 112.506C130.816 111.153 131.072 109.969 131.584 108.952C132.101 107.935 132.828 107.145 133.765 106.582C134.703 106.02 135.811 105.739 137.089 105.739C138.368 105.739 139.476 106.02 140.413 106.582C141.351 107.145 142.075 107.935 142.586 108.952C143.103 109.969 143.362 111.153 143.362 112.506C143.362 113.858 143.103 115.04 142.586 116.051C142.075 117.062 141.351 117.849 140.413 118.412C139.476 118.974 138.368 119.256 137.089 119.256ZM137.106 116.784C137.799 116.784 138.379 116.594 138.845 116.213C139.311 115.827 139.657 115.31 139.885 114.662C140.118 114.014 140.234 113.293 140.234 112.497C140.234 111.696 140.118 110.972 139.885 110.324C139.657 109.67 139.311 109.151 138.845 108.764C138.379 108.378 137.799 108.185 137.106 108.185C136.396 108.185 135.805 108.378 135.334 108.764C134.868 109.151 134.518 109.67 134.285 110.324C134.058 110.972 133.944 111.696 133.944 112.497C133.944 113.293 134.058 114.014 134.285 114.662C134.518 115.31 134.868 115.827 135.334 116.213C135.805 116.594 136.396 116.784 137.106 116.784ZM144.781 119V105.909H147.772V108.091H147.908C148.147 107.335 148.556 106.753 149.136 106.344C149.721 105.929 150.388 105.722 151.138 105.722C151.309 105.722 151.499 105.73 151.71 105.747C151.925 105.759 152.104 105.778 152.246 105.807V108.645C152.116 108.599 151.908 108.56 151.624 108.526C151.346 108.486 151.076 108.466 150.815 108.466C150.252 108.466 149.746 108.588 149.298 108.832C148.854 109.071 148.505 109.403 148.249 109.83C147.994 110.256 147.866 110.747 147.866 111.304V119H144.781ZM158.353 119.256C157.04 119.256 155.907 118.983 154.952 118.438C154.003 117.886 153.273 117.108 152.762 116.102C152.25 115.091 151.995 113.901 151.995 112.531C151.995 111.185 152.25 110.003 152.762 108.986C153.279 107.963 154 107.168 154.926 106.599C155.853 106.026 156.941 105.739 158.191 105.739C158.997 105.739 159.759 105.869 160.475 106.131C161.196 106.386 161.833 106.784 162.384 107.324C162.941 107.864 163.378 108.551 163.696 109.386C164.014 110.216 164.174 111.205 164.174 112.352V113.298H153.443V111.219H161.216C161.211 110.628 161.083 110.102 160.833 109.642C160.583 109.176 160.233 108.81 159.784 108.543C159.341 108.276 158.824 108.142 158.233 108.142C157.603 108.142 157.049 108.295 156.571 108.602C156.094 108.903 155.722 109.301 155.455 109.795C155.193 110.284 155.06 110.821 155.054 111.406V113.222C155.054 113.983 155.193 114.636 155.472 115.182C155.75 115.722 156.139 116.136 156.639 116.426C157.139 116.71 157.725 116.852 158.395 116.852C158.844 116.852 159.25 116.79 159.614 116.665C159.978 116.534 160.293 116.344 160.56 116.094C160.827 115.844 161.029 115.534 161.165 115.165L164.046 115.489C163.864 116.25 163.517 116.915 163.006 117.483C162.5 118.045 161.853 118.483 161.063 118.795C160.273 119.102 159.37 119.256 158.353 119.256ZM175.93 109.369L173.118 109.676C173.038 109.392 172.899 109.125 172.7 108.875C172.507 108.625 172.246 108.423 171.916 108.27C171.587 108.116 171.183 108.04 170.706 108.04C170.064 108.04 169.524 108.179 169.087 108.457C168.655 108.736 168.442 109.097 168.447 109.54C168.442 109.92 168.581 110.23 168.865 110.469C169.155 110.707 169.632 110.903 170.297 111.057L172.53 111.534C173.768 111.801 174.689 112.224 175.291 112.804C175.899 113.384 176.206 114.142 176.212 115.08C176.206 115.903 175.964 116.631 175.487 117.261C175.015 117.886 174.359 118.375 173.518 118.727C172.677 119.08 171.712 119.256 170.621 119.256C169.018 119.256 167.729 118.92 166.751 118.25C165.774 117.574 165.192 116.634 165.004 115.429L168.013 115.139C168.149 115.73 168.439 116.176 168.882 116.477C169.325 116.778 169.902 116.929 170.612 116.929C171.345 116.929 171.933 116.778 172.376 116.477C172.825 116.176 173.05 115.804 173.05 115.361C173.05 114.986 172.905 114.676 172.615 114.432C172.331 114.187 171.888 114 171.285 113.869L169.052 113.401C167.797 113.139 166.868 112.699 166.265 112.08C165.663 111.455 165.365 110.665 165.371 109.71C165.365 108.903 165.584 108.205 166.027 107.614C166.476 107.017 167.098 106.557 167.893 106.233C168.694 105.903 169.618 105.739 170.663 105.739C172.197 105.739 173.405 106.065 174.285 106.719C175.172 107.372 175.72 108.256 175.93 109.369Z" fill="white"/>
</svg>
