<svg width="337" height="201" viewBox="0 0 337 201" fill="none" xmlns="http://www.w3.org/2000/svg">
<rect width="337" height="200.862" rx="24" fill="#F4F4F4"/>
<path d="M245.215 47.3281V53.5898H243V47.3281H237.162V45.1133H243V39.002H245.215V45.1133H251.053V47.3281H245.215ZM258.217 44.8945V42.8164H260.582C262.852 42.8164 264.438 41.3535 264.438 39.3574C264.438 37.4023 263.111 36.0762 260.609 36.0762C258.34 36.0762 256.836 37.375 256.617 39.4395H254.252C254.525 36.0898 257.014 33.9434 260.719 33.9434C264.246 33.9434 266.912 36.0625 266.912 39.0293C266.912 41.5039 265.326 43.2812 262.865 43.7188V43.7734C265.846 43.9512 267.76 45.7969 267.76 48.5723C267.76 51.9629 264.67 54.3281 260.801 54.3281C256.672 54.3281 254.033 52.0449 253.855 48.7773H256.221C256.439 50.8008 258.121 52.1953 260.773 52.1953C263.385 52.1953 265.258 50.7188 265.258 48.6543C265.258 46.3301 263.508 44.8945 260.691 44.8945H258.217ZM277.549 54.3281C273.379 54.3281 270.398 51.9629 270.398 48.668C270.398 46.207 272.094 44.1836 274.637 43.5957V43.541C272.504 42.8848 271.178 41.2031 271.178 39.125C271.178 36.1445 273.885 33.9434 277.549 33.9434C281.24 33.9434 283.906 36.1309 283.906 39.1387C283.906 41.1895 282.607 42.8574 280.461 43.541V43.5957C283.018 44.1973 284.713 46.2207 284.713 48.668C284.713 51.9766 281.732 54.3281 277.549 54.3281ZM277.549 52.1816C280.27 52.1816 282.197 50.6367 282.197 48.4902C282.197 46.3164 280.27 44.7852 277.549 44.7852C274.842 44.7852 272.9 46.3301 272.9 48.4902C272.9 50.6367 274.842 52.1816 277.549 52.1816ZM277.549 42.625C279.846 42.625 281.473 41.2715 281.473 39.3574C281.473 37.416 279.859 36.0625 277.549 36.0625C275.238 36.0625 273.625 37.4297 273.625 39.3574C273.625 41.2715 275.238 42.625 277.549 42.625ZM294.926 38.9336C294.926 41.9141 293.285 43.8418 290.783 43.8418C288.281 43.8418 286.641 41.9141 286.641 38.9336C286.641 35.9531 288.281 34.0254 290.783 34.0254C293.285 34.0254 294.926 35.9531 294.926 38.9336ZM290.783 42.1738C291.986 42.1738 292.738 40.9434 292.738 38.9336C292.738 36.9238 291.986 35.6934 290.783 35.6934C289.58 35.6934 288.828 36.9238 288.828 38.9336C288.828 40.9434 289.58 42.1738 290.783 42.1738ZM290.182 54H287.803L295.418 43.5957L302.24 34.2715H304.592L297.182 44.416L290.182 54ZM305.768 49.2969C305.768 52.2773 304.127 54.2051 301.625 54.2051C299.123 54.2051 297.482 52.2773 297.482 49.2969C297.482 46.3164 299.123 44.3887 301.625 44.3887C304.127 44.3887 305.768 46.3164 305.768 49.2969ZM301.625 52.5371C302.828 52.5371 303.58 51.3066 303.58 49.2969C303.58 47.2871 302.828 46.0566 301.625 46.0566C300.422 46.0566 299.67 47.2871 299.67 49.2969C299.67 51.3066 300.422 52.5371 301.625 52.5371Z" fill="#FF4A71"/>
<path d="M209.47 71V63.8906H210.591V65.0254H210.618C211.015 64.2598 211.773 63.7676 212.874 63.7676C214.433 63.7676 215.335 64.7725 215.335 66.3857V71H214.146V66.5977C214.146 65.4492 213.605 64.8203 212.512 64.8203C211.391 64.8203 210.659 65.6133 210.659 66.8164V71H209.47ZM219.799 71.123C217.83 71.123 216.504 69.708 216.504 67.4453C216.504 65.1758 217.83 63.7676 219.799 63.7676C221.761 63.7676 223.087 65.1758 223.087 67.4453C223.087 69.708 221.761 71.123 219.799 71.123ZM219.799 70.0771C221.057 70.0771 221.877 69.1201 221.877 67.4453C221.877 65.7705 221.057 64.8135 219.799 64.8135C218.541 64.8135 217.714 65.7705 217.714 67.4453C217.714 69.1201 218.541 70.0771 219.799 70.0771ZM224.167 65.8525C224.167 64.6357 225.254 63.7676 226.819 63.7676C228.289 63.7676 229.369 64.6426 229.424 65.8457H228.289C228.207 65.1621 227.653 64.7383 226.778 64.7383C225.91 64.7383 225.336 65.1689 225.336 65.791C225.336 66.2832 225.712 66.6113 226.519 66.8164L227.619 67.083C229.055 67.4453 229.574 67.9648 229.574 69.0107C229.574 70.248 228.405 71.123 226.744 71.123C225.186 71.123 224.099 70.2754 223.976 69.0176H225.165C225.295 69.7559 225.855 70.1523 226.819 70.1523C227.783 70.1523 228.378 69.7422 228.378 69.0996C228.378 68.5938 228.084 68.3203 227.284 68.1084L226.033 67.7871C224.782 67.4658 224.167 66.8232 224.167 65.8525ZM239.521 63.8906V71H238.393V69.8447H238.365C237.941 70.665 237.203 71.123 236.109 71.123C234.558 71.123 233.648 70.1182 233.648 68.5049V63.8906H234.838V68.293C234.838 69.4482 235.378 70.0703 236.479 70.0703C237.634 70.0703 238.331 69.2773 238.331 68.0674V63.8906H239.521ZM237.121 62.8652H236.082L237.518 60.8145H238.803L237.121 62.8652ZM241.127 71V61.1357H242.316V71H241.127ZM244.306 62.1748H245.495V63.8906H246.876V64.8682H245.495V69.0928C245.495 69.7422 245.769 70.0361 246.377 70.0361C246.514 70.0361 246.787 70.0156 246.869 70.002V71C246.726 71.0342 246.397 71.0547 246.117 71.0547C244.812 71.0547 244.306 70.5215 244.306 69.1543V64.8682H243.246V63.8906H244.306V62.1748ZM248.209 71V63.8906H249.398V71H248.209ZM248.804 62.6943C248.4 62.6943 248.065 62.3594 248.065 61.9561C248.065 61.5459 248.4 61.2178 248.804 61.2178C249.214 61.2178 249.549 61.5459 249.549 61.9561C249.549 62.3594 249.214 62.6943 248.804 62.6943ZM251.005 71V63.8906H252.126V65.0254H252.153C252.488 64.2734 253.213 63.7676 254.17 63.7676C255.141 63.7676 255.858 64.2598 256.166 65.1211H256.193C256.59 64.2734 257.424 63.7676 258.422 63.7676C259.83 63.7676 260.739 64.6836 260.739 66.0918V71H259.55V66.3652C259.55 65.3945 259.01 64.8203 258.073 64.8203C257.13 64.8203 256.467 65.5176 256.467 66.4814V71H255.277V66.2354C255.277 65.3809 254.703 64.8203 253.821 64.8203C252.878 64.8203 252.194 65.5586 252.194 66.543V71H251.005ZM265.203 71.123C263.234 71.123 261.908 69.708 261.908 67.4453C261.908 65.1758 263.234 63.7676 265.203 63.7676C267.165 63.7676 268.491 65.1758 268.491 67.4453C268.491 69.708 267.165 71.123 265.203 71.123ZM265.203 70.0771C266.461 70.0771 267.281 69.1201 267.281 67.4453C267.281 65.7705 266.461 64.8135 265.203 64.8135C263.945 64.8135 263.118 65.7705 263.118 67.4453C263.118 69.1201 263.945 70.0771 265.203 70.0771ZM269.571 65.8525C269.571 64.6357 270.658 63.7676 272.224 63.7676C273.693 63.7676 274.773 64.6426 274.828 65.8457H273.693C273.611 65.1621 273.058 64.7383 272.183 64.7383C271.314 64.7383 270.74 65.1689 270.74 65.791C270.74 66.2832 271.116 66.6113 271.923 66.8164L273.023 67.083C274.459 67.4453 274.979 67.9648 274.979 69.0107C274.979 70.248 273.81 71.123 272.148 71.123C270.59 71.123 269.503 70.2754 269.38 69.0176H270.569C270.699 69.7559 271.26 70.1523 272.224 70.1523C273.188 70.1523 273.782 69.7422 273.782 69.0996C273.782 68.5938 273.488 68.3203 272.688 68.1084L271.438 67.7871C270.187 67.4658 269.571 66.8232 269.571 65.8525ZM279.682 71L284.146 62.2568V62.2295H278.834V61.1357H285.362V62.2773L280.974 71H279.682ZM292.308 71.123C290.496 71.123 289.266 69.6738 289.266 67.4453C289.266 65.2168 290.489 63.7676 292.28 63.7676C293.299 63.7676 294.119 64.2666 294.543 65.0459H294.57V61.1357H295.76V71H294.625V69.7969H294.604C294.146 70.6172 293.333 71.123 292.308 71.123ZM292.533 64.8135C291.275 64.8135 290.482 65.8389 290.482 67.4453C290.482 69.0586 291.275 70.0771 292.533 70.0771C293.757 70.0771 294.577 69.0381 294.577 67.4453C294.577 65.8594 293.757 64.8135 292.533 64.8135ZM297.428 71V63.8906H298.617V71H297.428ZM298.022 62.6943C297.619 62.6943 297.284 62.3594 297.284 61.9561C297.284 61.5459 297.619 61.2178 298.022 61.2178C298.433 61.2178 298.768 61.5459 298.768 61.9561C298.768 62.3594 298.433 62.6943 298.022 62.6943ZM302.568 70.1113C303.689 70.1113 304.551 69.3252 304.551 68.2998V67.7188L302.65 67.835C301.693 67.8965 301.146 68.3203 301.146 68.9902C301.146 69.667 301.714 70.1113 302.568 70.1113ZM302.302 71.123C300.887 71.123 299.937 70.2686 299.937 68.9902C299.937 67.7734 300.873 67.0078 302.514 66.9121L304.551 66.7959V66.2012C304.551 65.333 303.977 64.8135 302.992 64.8135C302.076 64.8135 301.502 65.2441 301.352 65.9414H300.203C300.285 64.7109 301.338 63.7676 303.02 63.7676C304.688 63.7676 305.74 64.6699 305.74 66.085V71H304.612V69.7764H304.585C304.161 70.5898 303.259 71.123 302.302 71.123ZM307.128 65.8525C307.128 64.6357 308.215 63.7676 309.78 63.7676C311.25 63.7676 312.33 64.6426 312.385 65.8457H311.25C311.168 65.1621 310.614 64.7383 309.739 64.7383C308.871 64.7383 308.297 65.1689 308.297 65.791C308.297 66.2832 308.673 66.6113 309.479 66.8164L310.58 67.083C312.016 67.4453 312.535 67.9648 312.535 69.0107C312.535 70.248 311.366 71.123 309.705 71.123C308.146 71.123 307.06 70.2754 306.937 69.0176H308.126C308.256 69.7559 308.816 70.1523 309.78 70.1523C310.744 70.1523 311.339 69.7422 311.339 69.0996C311.339 68.5938 311.045 68.3203 310.245 68.1084L308.994 67.7871C307.743 67.4658 307.128 66.8232 307.128 65.8525Z" fill="#1E1E1E" fill-opacity="0.7"/>
<rect x="24.5" y="81.5" width="287" height="94.8623" stroke="#CCCCCC" stroke-opacity="0.6"/>
<path d="M24 112.954H312" stroke="#CCCCCC" stroke-opacity="0.6"/>
<path d="M24 144.908H312" stroke="#CCCCCC" stroke-opacity="0.6"/>
<path d="M72 81L72 175.864" stroke="#CCCCCC" stroke-opacity="0.6"/>
<path d="M119.998 81L119.998 175.864" stroke="#CCCCCC" stroke-opacity="0.6"/>
<path d="M168.002 81L168.002 175.864" stroke="#CCCCCC" stroke-opacity="0.6"/>
<path d="M216.002 81L216.002 175.864" stroke="#CCCCCC" stroke-opacity="0.6"/>
<path d="M264 81L264 175.864" stroke="#CCCCCC" stroke-opacity="0.6"/>
<path d="M25 143.648C45.0086 147.281 91.4675 153.215 117.235 147.887C149.443 141.226 190.437 126.896 204.589 121.648C218.741 116.401 234.846 109.135 261.687 118.621C288.527 128.107 304.228 88.2048 313.5 89.0121" stroke="#FF4A71" stroke-width="4"/>
<path d="M33.6133 54H31.5273L25.293 37.0898H27.5078L32.5352 51.4336H32.6055L37.6328 37.0898H39.8477L33.6133 54ZM44.7109 43.3711C42.8008 43.3711 41.4648 44.8359 41.3359 46.8633H47.957C47.9102 44.8242 46.6328 43.3711 44.7109 43.3711ZM47.9102 50.5078H49.9141C49.5625 52.6406 47.5 54.2109 44.8398 54.2109C41.3477 54.2109 39.2266 51.7852 39.2266 47.9531C39.2266 44.168 41.3828 41.6016 44.7461 41.6016C48.0391 41.6016 50.0664 43.9922 50.0664 47.6836V48.457H41.3242V48.5742C41.3242 50.9062 42.6953 52.4414 44.8867 52.4414C46.4336 52.4414 47.5703 51.6562 47.9102 50.5078ZM52.1289 54V41.8125H54.0508V43.7578H54.0977C54.7773 42.4453 56.0781 41.6016 57.9648 41.6016C60.6367 41.6016 62.1836 43.3242 62.1836 46.0898V54H60.1445V46.4531C60.1445 44.4844 59.2188 43.4062 57.3438 43.4062C55.4219 43.4062 54.168 44.7656 54.168 46.8281V54H52.1289ZM69.4023 54.2109C66.2969 54.2109 64.1875 51.7266 64.1875 47.9062C64.1875 44.0859 66.2852 41.6016 69.3555 41.6016C71.1016 41.6016 72.5078 42.457 73.2344 43.793H73.2812V37.0898H75.3203V54H73.375V51.9375H73.3398C72.5547 53.3438 71.1602 54.2109 69.4023 54.2109ZM69.7891 43.3945C67.6328 43.3945 66.2734 45.1523 66.2734 47.9062C66.2734 50.6719 67.6328 52.418 69.7891 52.418C71.8867 52.418 73.293 50.6367 73.293 47.9062C73.293 45.1875 71.8867 43.3945 69.7891 43.3945ZM82.0938 52.4766C84.0156 52.4766 85.4922 51.1289 85.4922 49.3711V48.375L82.2344 48.5742C80.5938 48.6797 79.6562 49.4062 79.6562 50.5547C79.6562 51.7148 80.6289 52.4766 82.0938 52.4766ZM81.6367 54.2109C79.2109 54.2109 77.582 52.7461 77.582 50.5547C77.582 48.4688 79.1875 47.1562 82 46.9922L85.4922 46.793V45.7734C85.4922 44.2852 84.5078 43.3945 82.8203 43.3945C81.25 43.3945 80.2656 44.1328 80.0078 45.3281H78.0391C78.1797 43.2188 79.9844 41.6016 82.8672 41.6016C85.7266 41.6016 87.5312 43.1484 87.5312 45.5742V54H85.5977V51.9023H85.5508C84.8242 53.2969 83.2773 54.2109 81.6367 54.2109ZM89.9102 45.1758C89.9102 43.0898 91.7734 41.6016 94.457 41.6016C96.9766 41.6016 98.8281 43.1016 98.9219 45.1641H96.9766C96.8359 43.9922 95.8867 43.2656 94.3867 43.2656C92.8984 43.2656 91.9141 44.0039 91.9141 45.0703C91.9141 45.9141 92.5586 46.4766 93.9414 46.8281L95.8281 47.2852C98.2891 47.9062 99.1797 48.7969 99.1797 50.5898C99.1797 52.7109 97.1758 54.2109 94.3281 54.2109C91.6562 54.2109 89.793 52.7578 89.582 50.6016H91.6211C91.8438 51.8672 92.8047 52.5469 94.457 52.5469C96.1094 52.5469 97.1289 51.8438 97.1289 50.7422C97.1289 49.875 96.625 49.4062 95.2539 49.043L93.1094 48.4922C90.9648 47.9414 89.9102 46.8398 89.9102 45.1758Z" fill="#1E1E1E" fill-opacity="0.7"/>
</svg>
