<svg width="24" height="25" viewBox="0 0 24 25" fill="none" xmlns="http://www.w3.org/2000/svg">
<path d="M22 6.00746C21.2642 6.32903 20.4733 6.5456 19.6433 6.64322C20.4908 6.14363 21.1417 5.352 21.4475 4.4086C20.655 4.87128 19.7767 5.20762 18.8417 5.38892C18.0942 4.60385 17.0267 4.11328 15.8467 4.11328C13.1975 4.11328 11.2508 6.54642 11.8492 9.07226C8.44 8.90409 5.41667 7.29622 3.3925 4.85241C2.3175 6.66783 2.835 9.04273 4.66167 10.2454C3.99 10.224 3.35667 10.0427 2.80417 9.74002C2.75917 11.6112 4.12167 13.3619 6.095 13.7515C5.5175 13.9058 4.885 13.9418 4.24167 13.8204C4.76333 15.425 6.27833 16.5924 8.075 16.6252C6.35 17.9566 4.17667 18.5514 2 18.2987C3.81583 19.4447 5.97333 20.1133 8.29 20.1133C15.9083 20.1133 20.2125 13.7794 19.9525 8.09851C20.7542 7.52837 21.45 6.81714 22 6.00746Z" fill="#CCCCCC"/>
</svg>
