<svg width="24" height="24" viewBox="0 0 24 24" fill="none" xmlns="http://www.w3.org/2000/svg">
<path d="M11.9993 0C5.37263 0 0 5.37263 0 11.9993C0 18.626 5.37263 23.9987 11.9993 23.9987C18.626 23.9987 23.9986 18.626 23.9986 11.9993C23.9986 5.37263 18.6274 0 11.9993 0Z" fill="#FAFAFA"/>
<path d="M11.9993 1.44434C6.16961 1.44434 1.44441 6.1695 1.44441 11.9992C1.44441 17.8288 6.17099 22.5554 12.0006 22.5554C17.8302 22.5554 22.5568 17.8288 22.5568 11.9992C22.5568 6.1695 17.8289 1.44434 11.9993 1.44434Z" fill="#CCCCCC"/>
<path d="M9.28172 8.10016V15.9006C9.28172 16.1808 9.53336 16.3631 9.74822 16.2393L16.3695 12.3887C16.6429 12.2296 16.6429 11.7726 16.3695 11.6135L9.74822 7.76284C9.53336 7.63768 9.28172 7.81996 9.28172 8.10148V8.10016Z" fill="#606060"/>
</svg>
