<svg width="24" height="25" viewBox="0 0 24 25" fill="none" xmlns="http://www.w3.org/2000/svg">
<path d="M19.0002 2.11328H5C3 2.11328 2 3.11328 2 5.11328L2.00059 19.1133C2.00059 21.1133 3.00021 22.1133 5.00021 22.1133H19.0002C21.0002 22.1133 22.0002 21.1133 22.0002 19.1133V5.11328C22.0002 3.11328 21.0002 2.11328 19.0002 2.11328ZM8.66687 17.9467H6.16687V8.77995H8.66687V17.9467ZM7.41687 7.72328C6.61187 7.72328 5.95854 7.06495 5.95854 6.25328C5.95854 5.44161 6.61187 4.78328 7.41687 4.78328C8.22187 4.78328 8.87521 5.44161 8.87521 6.25328C8.87521 7.06495 8.22271 7.72328 7.41687 7.72328ZM18.6669 17.9467H16.1669V13.2767C16.1669 10.47 12.8335 10.6825 12.8335 13.2767V17.9467H10.3335V8.77995H12.8335V10.2508C13.9969 8.09578 18.6669 7.93662 18.6669 12.3142V17.9467Z" fill="#CCCCCC"/>
</svg>
