<svg width="24" height="25" viewBox="0 0 24 25" fill="none" xmlns="http://www.w3.org/2000/svg">
<path d="M22.9991 9.82278C23.0485 8.39144 22.7355 6.9708 22.0891 5.69278C21.6505 5.16838 21.0418 4.81449 20.3691 4.69278C17.5866 4.44031 14.7926 4.33683 11.9991 4.38278C9.2157 4.33474 6.43176 4.43488 3.65905 4.68278C3.11087 4.7825 2.60357 5.03963 2.19905 5.42278C1.29905 6.25278 1.19905 7.67278 1.09905 8.87278C0.953962 11.0303 0.953962 13.1952 1.09905 15.3528C1.12798 16.0282 1.22854 16.6986 1.39905 17.3528C1.51963 17.8578 1.76357 18.3251 2.10905 18.7128C2.51632 19.1162 3.03543 19.388 3.59905 19.4928C5.75497 19.7589 7.92727 19.8692 10.0991 19.8228C13.5991 19.8728 16.669 19.8228 20.299 19.5428C20.8765 19.4444 21.4102 19.1723 21.8291 18.7628C22.109 18.4827 22.3181 18.1399 22.4391 17.7628C22.7967 16.6654 22.9723 15.5169 22.959 14.3628C22.9991 13.8028 22.9991 10.4228 22.9991 9.82278ZM9.73905 14.9628V8.77278L15.659 11.8828C13.9991 12.8028 11.809 13.8428 9.73905 14.9628Z" fill="#CCCCCC"/>
</svg>
