<svg width="24" height="25" viewBox="0 0 24 25" fill="none" xmlns="http://www.w3.org/2000/svg">
<path d="M8.66721 12.1133C8.66721 10.2724 10.1591 8.77968 12 8.77968C13.8409 8.77968 15.3336 10.2724 15.3336 12.1133C15.3336 13.9542 13.8409 15.4469 12 15.4469C10.1591 15.4469 8.66721 13.9542 8.66721 12.1133ZM6.86511 12.1133C6.86511 14.9493 9.16398 17.2482 12 17.2482C14.836 17.2482 17.1349 14.9493 17.1349 12.1133C17.1349 9.27725 14.836 6.97838 12 6.97838C9.16398 6.97838 6.86511 9.27725 6.86511 12.1133ZM16.1381 6.77483C16.1381 7.43719 16.6753 7.97515 17.3385 7.97515C18.0008 7.97515 18.5388 7.43719 18.5388 6.77483C18.5388 6.11247 18.0016 5.57532 17.3385 5.57532C16.6753 5.57532 16.1381 6.11247 16.1381 6.77483ZM7.95961 20.253C6.98465 20.2086 6.45477 20.0463 6.10259 19.9089C5.6357 19.7272 5.30291 19.5107 4.95234 19.161C4.60259 18.8112 4.3853 18.4784 4.20436 18.0115C4.06704 17.6593 3.90469 17.1295 3.86026 16.1545C3.81179 15.1004 3.8021 14.7837 3.8021 12.1133C3.8021 9.44284 3.8126 9.12701 3.86026 8.07208C3.90469 7.09712 4.06785 6.56805 4.20436 6.21506C4.38611 5.74817 4.60259 5.41538 4.95234 5.06481C5.3021 4.71506 5.6349 4.49777 6.10259 4.31683C6.45477 4.17952 6.98465 4.01716 7.95961 3.97273C9.01373 3.92427 9.33037 3.91457 12 3.91457C14.6704 3.91457 14.9863 3.92507 16.0412 3.97273C17.0162 4.01716 17.5452 4.18032 17.8982 4.31683C18.3651 4.49777 18.6979 4.71506 19.0485 5.06481C19.3982 5.41457 19.6147 5.74817 19.7964 6.21506C19.9338 6.56724 20.0961 7.09712 20.1406 8.07208C20.189 9.12701 20.1987 9.44284 20.1987 12.1133C20.1987 14.7829 20.189 15.0996 20.1406 16.1545C20.0961 17.1295 19.933 17.6593 19.7964 18.0115C19.6147 18.4784 19.3982 18.8112 19.0485 19.161C18.6987 19.5107 18.3651 19.7272 17.8982 19.9089C17.546 20.0463 17.0162 20.2086 16.0412 20.253C14.9871 20.3015 14.6704 20.3112 12 20.3112C9.33037 20.3112 9.01373 20.3015 7.95961 20.253ZM7.87722 2.17386C6.8126 2.22233 6.08562 2.39115 5.44992 2.63832C4.79241 2.89357 4.23506 3.23606 3.67851 3.79179C3.12278 4.34753 2.78029 4.90488 2.52504 5.5632C2.27787 6.1989 2.10905 6.92588 2.06058 7.9905C2.01131 9.05674 2 9.39761 2 12.1133C2 14.829 2.01131 15.1698 2.06058 16.2361C2.10905 17.3007 2.27787 18.0277 2.52504 18.6634C2.78029 19.3209 3.12197 19.8791 3.67851 20.4348C4.23425 20.9905 4.7916 21.3322 5.44992 21.5883C6.08643 21.8354 6.8126 22.0043 7.87722 22.0527C8.94427 22.1012 9.28433 22.1133 12 22.1133C14.7165 22.1133 15.0565 22.102 16.1228 22.0527C17.1874 22.0043 17.9144 21.8354 18.5501 21.5883C19.2076 21.3322 19.7649 20.9905 20.3215 20.4348C20.8772 19.8791 21.2189 19.3209 21.475 18.6634C21.7221 18.0277 21.8918 17.3007 21.9394 16.2361C21.9879 15.169 21.9992 14.829 21.9992 12.1133C21.9992 9.39761 21.9879 9.05674 21.9394 7.9905C21.891 6.92588 21.7221 6.1989 21.475 5.5632C21.2189 4.90569 20.8772 4.34834 20.3215 3.79179C19.7658 3.23606 19.2076 2.89357 18.5509 2.63832C17.9144 2.39115 17.1874 2.22152 16.1236 2.17386C15.0574 2.1254 14.7165 2.11328 12.0008 2.11328C9.28433 2.11328 8.94427 2.12459 7.87722 2.17386Z" fill="#CCCCCC"/>
</svg>
