<svg width="135" height="36" viewBox="0 0 135 36" fill="none" xmlns="http://www.w3.org/2000/svg">
<g clip-path="url(#clip0_117_1402)">
<path d="M31.5643 8.12744V19.577C31.5643 17.7431 30.0748 16.2597 28.2382 16.2597H3.32611C1.48952 16.2597 0 17.7431 0 19.577V8.12744H31.5643Z" fill="#FF7182"/>
<path d="M3.32611 0H28.2382C30.0748 0 31.5643 1.4834 31.5643 3.31244V8.12748H0V3.31244C0 1.4834 1.48952 0 3.32611 0Z" fill="#FF94A1"/>
<path d="M31.5643 19.577V20.6716C31.5643 29.1015 24.6421 35.9952 16.1774 35.9952H15.3869C6.92216 35.9952 0 29.1015 0 20.6716V19.577C0 17.7432 1.48952 16.2598 3.32611 16.2598H28.2382C30.0748 16.2598 31.5643 17.7432 31.5643 19.577Z" fill="#FF4A71"/>
<path d="M58.7712 8.01204H54.24V18.8135C54.24 20.945 52.4998 22.6732 50.3644 22.6732C48.2289 22.6732 46.4887 20.945 46.4887 18.8135H46.4791V8.01204H39.6533V12.5246H41.943V18.8087H41.9479C41.9479 23.4317 45.7126 27.181 50.3644 27.181C51.7623 27.181 53.0783 26.8354 54.24 26.2353V27.6179C54.24 29.7493 52.4998 31.4776 50.3644 31.4776C48.8845 31.4776 47.6022 30.6567 46.9467 29.4421L43.6736 32.6969C45.2113 34.6988 47.636 35.9902 50.3644 35.9902C55.0064 35.9902 58.7712 32.2409 58.7712 27.6131V18.8231C58.7712 18.8231 58.7712 18.8087 58.7712 18.8039V8.00244V8.01204Z" fill="#FF4A71"/>
<path d="M73.5509 8.01221V13.5617H73.5461V18.6696C73.5509 18.7176 73.5509 18.7608 73.5509 18.8136C73.5509 20.9451 71.8107 22.6734 69.6753 22.6734C67.5398 22.6734 65.7996 20.9451 65.7996 18.8136C65.7996 18.7656 65.7996 18.7224 65.8045 18.6696H65.7996V11.5743C65.7996 11.5743 65.7948 11.5791 65.79 11.5791V8.01221H61.2588V20.4795H61.2684C61.3986 24.2096 64.474 27.186 68.2533 27.186C70.3743 27.186 72.2735 26.245 73.5557 24.7616V26.9267H78.087V8.01221H73.5557H73.5509Z" fill="#FF4A71"/>
<path d="M109.974 14.4545C109.969 14.3105 109.95 14.1761 109.94 14.0369C109.94 14.0369 109.939 14.0337 109.935 14.0273C109.926 13.9073 109.911 13.7921 109.892 13.6768C109.878 13.5616 109.854 13.4464 109.829 13.336C109.805 13.2208 109.781 13.1104 109.752 12.9951C109.723 12.8847 109.69 12.7743 109.661 12.6639C109.627 12.5535 109.588 12.4431 109.55 12.3375C108.586 9.6587 106.016 7.74805 102.989 7.74805C102.734 7.74805 102.488 7.75765 102.237 7.79125C102.155 7.79605 102.078 7.80566 101.996 7.82006C101.943 7.82486 101.88 7.83446 101.823 7.84886C101.697 7.86326 101.567 7.89207 101.447 7.92087C101.249 7.96408 101.061 8.02168 100.868 8.07929C100.757 8.1129 100.651 8.1513 100.55 8.18971C100.449 8.22331 100.357 8.26172 100.261 8.30012C100.193 8.32412 100.135 8.34813 100.073 8.38173C98.6942 8.99141 97.5517 10.0332 96.8142 11.3389C95.6236 9.19784 93.329 7.75285 90.7019 7.75285C88.5809 7.75285 86.6816 8.69377 85.3994 10.1772V8.01208H80.8682V26.9266H85.3994V21.3771H85.4042V16.2692C85.3994 16.2212 85.3994 16.178 85.3994 16.1252C85.3994 13.9937 87.1396 12.2654 89.275 12.2654C91.4105 12.2654 93.1507 13.9937 93.1507 16.1252C93.1507 16.1732 93.1507 16.2164 93.1458 16.2692H93.1507V23.3645C93.1507 23.3645 93.1555 23.3597 93.1603 23.3597V26.773L93.1507 26.9218H93.1603L97.6915 26.9266V15.9235C97.7928 13.8833 99.4847 12.2606 101.558 12.2606C103.63 12.2606 105.433 13.9889 105.433 16.1204C105.433 16.1684 105.433 16.2116 105.428 16.2644H105.433V23.3597C105.433 23.3597 105.438 23.3549 105.443 23.3549V26.9218H109.974V14.4545Z" fill="#FF4A71"/>
<path d="M129.366 15.8707C129.116 11.3389 125.351 7.74805 120.738 7.74805C116.125 7.74805 112.095 11.603 112.095 16.3556V18.5735C112.095 23.3261 115.966 27.181 120.738 27.181C123.244 27.181 125.5 26.1201 127.077 24.4255C127.192 24.3007 127.303 24.1758 127.409 24.0462L124.353 20.9978C124.262 21.1418 124.16 21.2763 124.049 21.4059C123.23 22.3852 122.054 22.9997 120.743 22.9997C118.598 22.9997 116.809 21.3531 116.366 19.1544H129.371C129.386 18.9623 129.39 18.7655 129.39 18.5687V16.3508C129.39 16.1876 129.386 16.0292 129.376 15.8659L129.366 15.8707ZM116.337 15.8707C116.746 13.624 118.559 11.9246 120.733 11.9246C122.907 11.9246 124.724 13.624 125.129 15.8707H116.332H116.337Z" fill="#FF4A71"/>
<path d="M131.748 10.4652C130.451 10.4652 129.396 9.41387 129.396 8.1225C129.396 6.83113 130.451 5.77979 131.748 5.77979C133.045 5.77979 134.1 6.83113 134.1 8.1225C134.1 9.41387 133.045 10.4652 131.748 10.4652ZM131.748 6.24065C130.702 6.24065 129.853 7.08556 129.853 8.1273C129.853 9.16904 130.702 10.0139 131.748 10.0139C132.794 10.0139 133.642 9.16904 133.642 8.1273C133.642 7.08556 132.794 6.24065 131.748 6.24065Z" fill="#FF4A71"/>
<path d="M132.173 9.22644L131.715 8.42474C131.686 8.42474 131.662 8.42474 131.628 8.42474H131.382V9.22164H130.938V7.02295H131.715C132.013 7.02295 132.254 7.05655 132.423 7.20537C132.563 7.33019 132.611 7.50301 132.611 7.72384C132.611 7.93027 132.558 8.1175 132.414 8.23751C132.351 8.29992 132.269 8.33832 132.173 8.36713L132.683 9.22644H132.168H132.173ZM131.69 7.3686H131.382V8.09349H131.695C132.033 8.09349 132.158 7.97828 132.158 7.72864C132.158 7.45021 131.989 7.36379 131.69 7.36379V7.3686Z" fill="#FF4A71"/>
</g>
<defs>
<clipPath id="clip0_117_1402">
<rect width="134.1" height="36" fill="white"/>
</clipPath>
</defs>
</svg>
