<svg width="231" height="302" viewBox="0 0 231 302" fill="none" xmlns="http://www.w3.org/2000/svg">
<g clip-path="url(#clip0_86_1414)">
<path d="M115.492 76.9561C73.8688 76.9561 40.124 110.701 40.124 152.324C40.124 193.948 73.8688 227.693 115.492 227.693C157.116 227.693 190.861 193.948 190.861 152.324C190.861 110.701 157.116 76.9561 115.492 76.9561Z" fill="#2233E0"/>
<path d="M100.3 168.632C101.033 174.861 107.537 178.954 115.92 178.954C124.303 178.954 130.12 174.923 130.12 169.365C130.12 164.433 126.502 161.715 117.386 159.669L107.537 157.516C93.5966 154.523 86.7408 147.453 86.7408 136.399C86.7408 122.458 98.7881 113.235 115.66 113.235C132.533 113.235 144.321 122.305 144.58 135.971H129.754C129.235 129.573 123.631 125.695 115.706 125.695C107.782 125.695 102.666 129.421 102.666 135.024C102.666 139.681 106.331 142.308 115.034 144.293L124.196 146.232C139.343 149.484 145.939 155.974 145.939 167.502C145.939 182.175 134.044 191.444 115.279 191.444C96.513 191.444 85.5192 182.801 85.0459 168.601H100.3V168.632Z" fill="#FAFAFA"/>
<path d="M120.699 103.509H111.721C110.397 103.509 109.324 104.582 109.324 105.906V117.755C109.324 119.079 110.397 120.152 111.721 120.152H120.699C122.023 120.152 123.096 119.079 123.096 117.755V105.906C123.096 104.582 122.023 103.509 120.699 103.509Z" fill="#FAFAFA"/>
<path d="M120.699 184.466H111.721C110.397 184.466 109.324 185.539 109.324 186.863V198.712C109.324 200.036 110.397 201.109 111.721 201.109H120.699C122.023 201.109 123.096 200.036 123.096 198.712V186.863C123.096 185.539 122.023 184.466 120.699 184.466Z" fill="#FAFAFA"/>
<path d="M211.886 31.4395H2.80609C1.65922 31.4395 0.729492 32.3692 0.729492 33.5161V43.1967C0.729492 44.3435 1.65922 45.2733 2.80609 45.2733H211.886C213.033 45.2733 213.963 44.3435 213.963 43.1967V33.5161C213.963 32.3692 213.033 31.4395 211.886 31.4395Z" fill="#CCCCCC"/>
<path d="M229.445 36.036L194.658 1.2484C193.554 0.145253 191.766 0.145254 190.663 1.2484L184.876 7.03553C183.772 8.13868 183.772 9.92724 184.876 11.0304L219.663 45.818C220.766 46.9211 222.555 46.9211 223.658 45.818L229.445 40.0308C230.548 38.9277 230.548 37.1391 229.445 36.036Z" fill="#CCCCCC"/>
<path d="M194.658 75.4569L229.446 40.6693C230.549 39.5662 230.549 37.7776 229.446 36.6744L223.659 30.8873C222.556 29.7842 220.767 29.7842 219.664 30.8873L184.876 65.6749C183.773 66.778 183.773 68.5666 184.876 69.6697L190.664 75.4569C191.767 76.56 193.555 76.56 194.658 75.4569Z" fill="#CCCCCC"/>
<path d="M19.1135 270.401H228.193C229.34 270.401 230.27 269.472 230.27 268.325V258.644C230.27 257.497 229.34 256.568 228.193 256.568H19.1135C17.9666 256.568 17.0369 257.497 17.0369 258.644V268.325C17.0369 269.472 17.9666 270.401 19.1135 270.401Z" fill="#CCCCCC"/>
<path d="M1.55434 265.82L36.3419 300.608C37.4451 301.711 39.2336 301.711 40.3368 300.608L46.1239 294.821C47.2271 293.718 47.2271 291.929 46.1239 290.826L11.3363 256.038C10.2332 254.935 8.44462 254.935 7.34147 256.038L1.55435 261.826C0.451203 262.929 0.451195 264.717 1.55434 265.82Z" fill="#CCCCCC"/>
<path d="M36.3343 226.393L1.54674 261.18C0.443594 262.283 0.443584 264.072 1.54673 265.175L7.33387 270.962C8.43701 272.065 10.2256 272.065 11.3287 270.962L46.1163 236.175C47.2195 235.072 47.2195 233.283 46.1163 232.18L40.3292 226.393C39.226 225.29 37.4375 225.29 36.3343 226.393Z" fill="#CCCCCC"/>
</g>
<g clip-path="url(#clip1_86_1414)">
<path d="M115.492 76.9561C73.8688 76.9561 40.124 110.701 40.124 152.324C40.124 193.948 73.8688 227.693 115.492 227.693C157.116 227.693 190.861 193.948 190.861 152.324C190.861 110.701 157.116 76.9561 115.492 76.9561Z" fill="#2233E0"/>
<path d="M100.3 168.632C101.033 174.861 107.537 178.954 115.92 178.954C124.303 178.954 130.12 174.923 130.12 169.365C130.12 164.433 126.502 161.715 117.386 159.669L107.537 157.516C93.5966 154.523 86.7408 147.453 86.7408 136.399C86.7408 122.458 98.7881 113.235 115.66 113.235C132.533 113.235 144.321 122.305 144.58 135.971H129.754C129.235 129.573 123.631 125.695 115.706 125.695C107.782 125.695 102.666 129.421 102.666 135.024C102.666 139.681 106.331 142.308 115.034 144.293L124.196 146.232C139.343 149.484 145.939 155.974 145.939 167.502C145.939 182.175 134.044 191.444 115.279 191.444C96.513 191.444 85.5192 182.801 85.0459 168.601H100.3V168.632Z" fill="#FAFAFA"/>
<path d="M120.699 103.509H111.721C110.397 103.509 109.324 104.582 109.324 105.906V117.755C109.324 119.079 110.397 120.152 111.721 120.152H120.699C122.023 120.152 123.096 119.079 123.096 117.755V105.906C123.096 104.582 122.023 103.509 120.699 103.509Z" fill="#FAFAFA"/>
<path d="M120.699 184.466H111.721C110.397 184.466 109.324 185.539 109.324 186.863V198.712C109.324 200.036 110.397 201.109 111.721 201.109H120.699C122.023 201.109 123.096 200.036 123.096 198.712V186.863C123.096 185.539 122.023 184.466 120.699 184.466Z" fill="#FAFAFA"/>
<path d="M19.1135 270.401H228.193C229.34 270.401 230.27 269.472 230.27 268.325V258.644C230.27 257.497 229.34 256.568 228.193 256.568H19.1135C17.9666 256.568 17.0369 257.497 17.0369 258.644V268.325C17.0369 269.472 17.9666 270.401 19.1135 270.401Z" fill="#CCCCCC"/>
<path d="M1.55434 265.82L36.3419 300.608C37.4451 301.711 39.2336 301.711 40.3368 300.608L46.1239 294.821C47.2271 293.718 47.2271 291.929 46.1239 290.826L11.3363 256.038C10.2332 254.935 8.44462 254.935 7.34147 256.038L1.55435 261.826C0.451203 262.929 0.451195 264.717 1.55434 265.82Z" fill="#CCCCCC"/>
<path d="M36.3343 226.393L1.54674 261.18C0.443594 262.283 0.443584 264.072 1.54673 265.175L7.33387 270.962C8.43701 272.065 10.2256 272.065 11.3287 270.962L46.1163 236.175C47.2195 235.072 47.2195 233.283 46.1163 232.18L40.3292 226.393C39.226 225.29 37.4375 225.29 36.3343 226.393Z" fill="#CCCCCC"/>
</g>
<defs>
<clipPath id="clip0_86_1414">
<rect width="229.541" height="301" fill="white" transform="translate(0.729492 0.427734)"/>
</clipPath>
<clipPath id="clip1_86_1414">
<rect width="229.541" height="301" fill="white" transform="translate(0.729492 0.427734)"/>
</clipPath>
</defs>
</svg>
