<svg width="313" height="293" viewBox="0 0 313 293" fill="none" xmlns="http://www.w3.org/2000/svg">
<path d="M293.819 0H19.1813C8.72069 0 0.240723 8.46117 0.240723 18.8986V274.029C0.240723 284.466 8.72069 292.928 19.1813 292.928H293.819C304.28 292.928 312.76 284.466 312.76 274.029V18.8986C312.76 8.46117 304.28 0 293.819 0Z" fill="white"/>
<path d="M68.5921 163.717H30.711C25.4807 163.717 21.2407 167.948 21.2407 173.167V254.667C21.2407 259.885 25.4807 264.116 30.711 264.116H68.5921C73.8224 264.116 78.0623 259.885 78.0623 254.667V173.167C78.0623 167.948 73.8224 163.717 68.5921 163.717Z" fill="#2233E0" fill-opacity="0.2"/>
<path d="M139.619 146H101.738C96.5076 146 92.2676 150.231 92.2676 155.449V254.667C92.2676 259.885 96.5076 264.116 101.738 264.116H139.619C144.849 264.116 149.089 259.885 149.089 254.667V155.449C149.089 150.231 144.849 146 139.619 146Z" fill="#2233E0" fill-opacity="0.2"/>
<path d="M210.646 219.232H172.765C167.535 219.232 163.295 223.463 163.295 228.681V254.667C163.295 259.885 167.535 264.116 172.765 264.116H210.646C215.877 264.116 220.117 259.885 220.117 254.667V228.681C220.117 223.463 215.877 219.232 210.646 219.232Z" fill="#2233E0"/>
<path d="M281.673 197.971H243.792C238.562 197.971 234.322 202.202 234.322 207.42V254.667C234.322 259.886 238.562 264.116 243.792 264.116H281.673C286.903 264.116 291.143 259.886 291.143 254.667V207.42C291.143 202.202 286.903 197.971 281.673 197.971Z" fill="#2233E0" fill-opacity="0.2"/>
</svg>
